# Blender 4.2.14 LTS
# www.blender.org
mtllib bar.mtl
o Plane
v -0.058903 -0.203707 0.000000
v 2.952963 -0.203707 0.000000
v -0.058903 0.201180 0.000000
v 2.952963 0.201180 0.000000
v -0.019292 0.161569 0.000000
v -0.019292 -0.164096 0.000000
v 2.913352 -0.164096 0.000000
v 2.913352 0.161569 0.000000
vn -0.0000 -0.0000 1.0000
vt 0.019806 0.069667
vt 0.019806 0.930333
vt 0.000000 1.000000
vt 0.000000 0.000000
vt 0.980195 0.069667
vt 1.000000 0.000000
vt 0.980195 0.930333
vt 1.000000 1.000000
s 0
usemtl Material.001
f 6/1/1 5/2/1 3/3/1 1/4/1
f 7/5/1 6/1/1 1/4/1 2/6/1
f 8/7/1 7/5/1 2/6/1 4/8/1
f 5/2/1 8/7/1 4/8/1 3/3/1
