# Blender 4.2.0
# www.blender.org
mtllib fireball.mtl
o Sphere
v -0.155310 0.720577 -0.694737
v 0.510378 0.732678 -0.484200
v 0.501078 0.200036 -0.863476
v 0.461940 -0.382683 -0.800103
v 0.494082 -0.727777 -0.494082
v 0.285554 0.927939 -0.259407
v 0.865684 0.200036 -0.497254
v 0.800103 -0.382683 -0.461940
v 0.320256 0.937142 0.215817
v 0.923879 0.382683 0.000000
v 1.003368 -0.163000 0.000000
v 0.530262 -0.876959 -0.015173
v 0.668722 0.738401 0.203905
v 0.800103 0.382683 0.461940
v 0.862755 -0.220170 0.484846
v 0.481416 -0.737438 0.496828
v 0.148224 0.727777 0.690764
v 0.497254 0.200036 0.865684
v 0.461940 -0.382683 0.800103
v -0.002208 0.200036 0.998331
v 0.000000 -0.382683 0.923879
v 0.079072 -0.997975 0.214205
v -0.447719 0.568183 0.715552
v -0.487486 -0.177753 0.870976
v -0.192866 -0.721091 0.694150
v -0.056708 0.997900 0.211637
v -0.378780 0.927101 0.101494
v -0.800103 0.382683 0.461940
v -0.850674 -0.199792 0.521210
v -0.690764 -0.727777 0.148224
v -0.694737 0.720577 0.155310
v -0.923880 0.382683 0.000000
v -0.997311 -0.199792 0.026044
v -0.320257 -0.937142 0.215817
v -0.715977 0.582058 -0.436118
v -0.876719 -0.199792 -0.476100
v -0.169442 0.937142 -0.347031
v -0.461940 0.382683 -0.800103
v -0.521210 -0.199792 -0.850674
v -0.473748 -0.727777 -0.524107
v -0.000000 0.382683 -0.923880
v -0.026044 -0.199792 -0.997311
v 0.000000 -0.707107 -0.707107
v -0.124245 -0.955553 -0.349111
vn 0.1215 -0.7113 0.6923
vn -0.5142 -0.7015 0.4935
vn -0.4855 -0.1945 0.8523
vn -0.4641 0.3569 0.8107
vn -0.4814 0.7309 0.4838
vn -0.2844 -0.9221 0.2624
vn -0.8512 -0.1929 0.4882
vn -0.8146 0.3749 0.4425
vn -0.3378 -0.9148 -0.2214
vn -0.9244 -0.3813 0.0133
vn -0.9805 0.1962 -0.0121
vn -0.5661 0.8241 0.0215
vn -0.6645 -0.7196 -0.2015
vn -0.7930 -0.3689 -0.4848
vn -0.8561 0.2325 -0.4616
vn -0.4946 0.7109 -0.5000
vn -0.1600 -0.7060 -0.6899
vn -0.4973 -0.1966 -0.8450
vn -0.4394 0.3734 -0.8170
vn 0.0165 -0.1865 -0.9823
vn -0.0370 0.3699 -0.9283
vn -0.0921 0.9719 -0.2165
vn 0.4347 -0.5488 -0.7140
vn 0.4962 0.1631 -0.8527
vn 0.2082 0.6988 -0.6844
vn 0.0763 -0.9691 -0.2345
vn 0.4102 -0.9059 -0.1049
vn 0.8101 -0.3297 -0.4849
vn 0.8257 0.2035 -0.5262
vn 0.6987 0.7024 -0.1360
vn 0.6754 -0.7212 -0.1535
vn 0.9450 -0.3264 0.0225
vn 0.9813 0.1922 -0.0124
vn 0.3578 0.9126 -0.1979
vn 0.7178 -0.5461 0.4319
vn 0.8692 0.1833 0.4592
vn 0.1833 -0.9223 0.3402
vn 0.4889 -0.3278 0.8084
vn 0.5095 0.1822 0.8410
vn 0.5150 0.6955 0.5011
vn -0.0204 -0.3702 0.9287
vn 0.0281 0.1923 0.9809
vn -0.0048 0.6743 0.7384
vn 0.1170 0.9402 0.3200
vt 0.666667 0.562957
vt 0.750000 0.625000
vt 0.750000 0.437055
vt 0.822808 0.875000
vt 0.617222 0.875000
vt 0.708333 1.000000
vt 0.506454 0.173359
vt 0.625000 0.250000
vt 0.804594 0.125000
vt 0.583333 0.562957
vt 0.620786 0.750000
vt 0.625000 0.000000
vt 0.500000 0.448994
vt 0.583333 0.375000
vt 0.406141 0.875000
vt 0.541667 1.000000
vt 0.666667 0.375000
vt 0.750000 0.250000
vt 0.416667 0.625000
vt 0.452897 0.750000
vt 0.500000 0.625000
vt 0.333333 0.562957
vt 0.416667 0.430170
vt 0.331759 0.071538
vt 0.372519 0.250000
vt 0.333333 0.375000
vt 0.250000 0.562957
vt 0.283560 0.750000
vt 0.166667 0.688710
vt 0.095207 0.125000
vt 0.206823 0.250000
vt 0.166667 0.444025
vt 0.250000 0.375000
vt 0.000000 0.625000
vt 0.034884 0.750000
vt 0.083333 0.625000
vt 0.033560 0.250000
vt 0.000000 0.437055
vt 0.083333 0.437055
vt 0.916667 0.693373
vt 1.000000 0.750000
vt 1.000000 0.625000
vt 1.000000 0.875000
vt 0.958333 1.000000
vt 0.958333 0.000000
vt 1.000000 0.125000
vt 0.866893 0.250000
vt 0.833333 0.437055
vt 0.916667 0.437055
vt 0.784884 0.750000
vt 0.833333 0.625000
vt 0.245247 0.930371
vt 0.041667 0.875000
vt 1.000000 0.250000
vt 1.000000 0.437055
s 1
usemtl outer
f 3/1/3 41/2/41 42/3/42
f 37/4/37 6/5/6 26/6/26
f 12/7/12 5/8/5 44/9/44
f 7/10/7 2/11/2 3/1/3
f 22/12/22 12/7/12 44/9/44
f 11/13/11 7/10/7 8/14/8
f 6/5/6 9/15/9 26/16/26
f 4/17/4 43/18/43 5/8/5
f 14/19/14 13/20/13 10/21/10
f 18/22/18 14/19/14 15/23/15
f 22/24/22 16/25/16 12/7/12
f 16/25/16 19/26/19 15/23/15
f 20/27/20 17/28/17 18/22/18
f 23/29/23 17/28/17 20/27/20
f 34/30/34 25/31/25 22/24/22
f 24/32/24 20/27/20 21/33/21
f 32/34/32 31/35/31 28/36/28
f 30/37/30 33/38/33 29/39/29
f 35/40/35 31/41/31 32/42/32
f 27/43/27 37/4/37 26/44/26
f 22/45/22 44/9/44 34/46/34
f 40/47/40 39/48/39 36/49/36
f 41/2/41 1/50/1 38/51/38
f 1/50/1 6/5/6 37/4/37
f 41/2/41 2/11/2 1/50/1
f 44/9/44 5/8/5 43/18/43
f 4/17/4 3/1/3 42/3/42
f 3/1/3 8/14/8 7/10/7
f 2/11/2 10/21/10 13/20/13
f 5/8/5 8/14/8 4/17/4
f 8/14/8 12/7/12 11/13/11
f 6/5/6 13/20/13 9/15/9
f 11/13/11 10/21/10 7/10/7
f 15/23/15 12/7/12 16/25/16
f 14/19/14 11/13/11 15/23/15
f 14/19/14 17/28/17 13/20/13
f 13/20/13 17/28/17 9/15/9
f 19/26/19 18/22/18 15/23/15
f 18/22/18 21/33/21 20/27/20
f 22/24/22 25/31/25 16/25/16
f 16/25/16 21/33/21 19/26/19
f 29/39/29 25/31/25 30/37/30
f 17/28/17 26/52/26 9/15/9
f 25/31/25 24/32/24 21/33/21
f 24/32/24 23/29/23 20/27/20
f 17/28/17 23/29/23 26/52/26
f 24/32/24 28/36/28 23/29/23
f 27/53/27 23/29/23 31/35/31
f 28/36/28 33/38/33 32/34/32
f 34/30/34 30/37/30 25/31/25
f 28/36/28 31/35/31 23/29/23
f 34/46/34 40/47/40 30/54/30
f 36/49/36 30/54/30 40/47/40
f 32/42/32 36/49/36 35/40/35
f 27/43/27 35/40/35 37/4/37
f 36/49/36 38/51/38 35/40/35
f 39/48/39 43/18/43 42/3/42
f 35/40/35 1/50/1 37/4/37
f 38/51/38 1/50/1 35/40/35
f 38/51/38 42/3/42 41/2/41
f 44/9/44 43/18/43 40/47/40
f 4/17/4 42/3/42 43/18/43
f 1/50/1 2/11/2 6/5/6
f 41/2/41 3/1/3 2/11/2
f 3/1/3 4/17/4 8/14/8
f 2/11/2 7/10/7 10/21/10
f 8/14/8 5/8/5 12/7/12
f 6/5/6 2/11/2 13/20/13
f 15/23/15 11/13/11 12/7/12
f 14/19/14 10/21/10 11/13/11
f 14/19/14 18/22/18 17/28/17
f 18/22/18 19/26/19 21/33/21
f 16/25/16 25/31/25 21/33/21
f 29/39/29 24/32/24 25/31/25
f 24/32/24 29/39/29 28/36/28
f 27/53/27 26/52/26 23/29/23
f 28/36/28 29/39/29 33/38/33
f 34/46/34 44/9/44 40/47/40
f 36/49/36 33/55/33 30/54/30
f 32/42/32 33/55/33 36/49/36
f 27/43/27 31/41/31 35/40/35
f 36/49/36 39/48/39 38/51/38
f 39/48/39 40/47/40 43/18/43
f 38/51/38 39/48/39 42/3/42
o Sphere.001
v 0.290359 0.711231 -0.290359
v 0.502916 0.410629 -0.502916
v 0.580718 0.000000 -0.580718
v 0.502916 -0.410629 -0.502916
v 0.290359 -0.711231 -0.290359
v 0.410629 0.711231 0.000000
v 0.711231 0.410629 0.000000
v 0.821259 0.000000 0.000000
v 0.711231 -0.410629 0.000000
v 0.410629 -0.711231 0.000000
v 0.290359 0.711231 0.290359
v 0.502916 0.410629 0.502916
v 0.580718 0.000000 0.580718
v 0.502916 -0.410629 0.502916
v 0.290359 -0.711231 0.290359
v 0.000000 0.711231 0.410629
v 0.000000 0.410629 0.711231
v 0.000000 0.000000 0.821259
v 0.000000 -0.410629 0.711231
v 0.000000 -0.711231 0.410629
v 0.000000 0.821259 0.000000
v -0.290359 0.711231 0.290359
v -0.502916 0.410629 0.502916
v -0.580718 0.000000 0.580718
v -0.502916 -0.410629 0.502916
v -0.290359 -0.711231 0.290359
v 0.000000 -0.821259 0.000000
v -0.410629 0.711231 0.000000
v -0.711231 0.410629 0.000000
v -0.821259 0.000000 0.000000
v -0.711231 -0.410629 0.000000
v -0.410629 -0.711231 0.000000
v -0.290359 0.711231 -0.290359
v -0.502916 0.410629 -0.502916
v -0.580718 0.000000 -0.580718
v -0.502916 -0.410629 -0.502916
v -0.290359 -0.711231 -0.290359
v 0.000000 0.711231 -0.410629
v 0.000000 0.410629 -0.711231
v 0.000000 0.000000 -0.821259
v 0.000000 -0.410629 -0.711231
v 0.000000 -0.711231 -0.410629
vn 0.3855 0.8383 -0.3855
vn 0.6225 0.4744 -0.6225
vn 0.7071 -0.0000 -0.7071
vn 0.6225 -0.4744 -0.6225
vn 0.3855 -0.8383 -0.3855
vn 0.5452 0.8383 -0.0000
vn 0.8803 0.4744 -0.0000
vn 1.0000 -0.0000 -0.0000
vn 0.8803 -0.4744 -0.0000
vn 0.5452 -0.8383 -0.0000
vn 0.3855 0.8383 0.3855
vn 0.6225 0.4744 0.6225
vn 0.7071 -0.0000 0.7071
vn 0.6225 -0.4744 0.6225
vn 0.3855 -0.8383 0.3855
vn -0.0000 0.8383 0.5452
vn -0.0000 0.4744 0.8803
vn -0.0000 -0.0000 1.0000
vn -0.0000 -0.4744 0.8803
vn -0.0000 -0.8383 0.5452
vn -0.0000 1.0000 -0.0000
vn -0.3855 0.8383 0.3855
vn -0.6225 0.4744 0.6225
vn -0.7071 -0.0000 0.7071
vn -0.6225 -0.4744 0.6225
vn -0.3855 -0.8383 0.3855
vn -0.0000 -1.0000 -0.0000
vn -0.5452 0.8383 -0.0000
vn -0.8803 0.4744 -0.0000
vn -1.0000 -0.0000 -0.0000
vn -0.8803 -0.4744 -0.0000
vn -0.5452 -0.8383 -0.0000
vn -0.3855 0.8383 -0.3855
vn -0.6225 0.4744 -0.6225
vn -0.7071 -0.0000 -0.7071
vn -0.6225 -0.4744 -0.6225
vn -0.3855 -0.8383 -0.3855
vn -0.0000 0.8383 -0.5452
vn -0.0000 0.4744 -0.8803
vn -0.0000 -0.0000 -1.0000
vn -0.0000 -0.4744 -0.8803
vn -0.0000 -0.8383 -0.5452
vt 0.750000 0.333333
vt 0.625000 0.166667
vt 0.750000 0.166667
vt 0.750000 0.666667
vt 0.625000 0.500000
vt 0.750000 0.500000
vt 0.750000 0.833333
vt 0.687500 1.000000
vt 0.625000 0.833333
vt 0.687500 0.000000
vt 0.625000 0.333333
vt 0.625000 0.666667
vt 0.562500 1.000000
vt 0.500000 0.833333
vt 0.562500 0.000000
vt 0.500000 0.166667
vt 0.500000 0.333333
vt 0.500000 0.666667
vt 0.500000 0.500000
vt 0.437500 0.000000
vt 0.375000 0.166667
vt 0.375000 0.500000
vt 0.375000 0.333333
vt 0.375000 0.666667
vt 0.437500 1.000000
vt 0.375000 0.833333
vt 0.312500 0.000000
vt 0.250000 0.166667
vt 0.250000 0.333333
vt 0.250000 0.666667
vt 0.250000 0.500000
vt 0.312500 1.000000
vt 0.250000 0.833333
vt 0.187500 0.000000
vt 0.125000 0.166667
vt 0.125000 0.333333
vt 0.125000 0.666667
vt 0.125000 0.500000
vt 0.187500 1.000000
vt 0.125000 0.833333
vt 0.000000 0.333333
vt 0.000000 0.666667
vt 0.000000 0.166667
vt 0.000000 0.500000
vt 0.062500 1.000000
vt 0.000000 0.833333
vt 0.062500 0.000000
vt 1.000000 0.833333
vt 0.875000 0.666667
vt 1.000000 0.666667
vt 1.000000 0.333333
vt 0.875000 0.166667
vt 1.000000 0.166667
vt 0.875000 0.500000
vt 1.000000 0.500000
vt 0.937500 1.000000
vt 0.875000 0.833333
vt 0.937500 0.000000
vt 0.875000 0.333333
vt 0.812500 1.000000
vt 0.812500 0.000000
s 1
usemtl inner
f 85/56/85 49/57/49 86/58/86
f 83/59/83 47/60/47 84/61/84
f 82/62/82 65/63/65 45/64/45
f 71/65/71 86/58/86 49/57/49
f 84/61/84 48/66/48 85/56/85
f 82/62/82 46/67/46 83/59/83
f 45/64/45 65/68/65 50/69/50
f 71/70/71 49/57/49 54/71/54
f 47/60/47 53/72/53 48/66/48
f 45/64/45 51/73/51 46/67/46
f 48/66/48 54/71/54 49/57/49
f 46/67/46 52/74/52 47/60/47
f 71/75/71 54/71/54 59/76/59
f 53/72/53 57/77/57 58/78/58
f 50/69/50 56/79/56 51/73/51
f 53/72/53 59/76/59 54/71/54
f 52/74/52 56/79/56 57/77/57
f 50/69/50 65/80/65 55/81/55
f 71/82/71 59/76/59 64/83/64
f 57/77/57 63/84/63 58/78/58
f 55/81/55 61/85/61 56/79/56
f 58/78/58 64/83/64 59/76/59
f 56/79/56 62/86/62 57/77/57
f 55/81/55 65/87/65 60/88/60
f 71/89/71 64/83/64 70/90/70
f 62/86/62 69/91/69 63/84/63
f 60/88/60 67/92/67 61/85/61
f 63/84/63 70/90/70 64/83/64
f 61/85/61 68/93/68 62/86/62
f 60/88/60 65/94/65 66/95/66
f 68/93/68 75/96/75 69/91/69
f 66/95/66 73/97/73 67/92/67
f 69/91/69 76/98/76 70/90/70
f 67/92/67 74/99/74 68/93/68
f 66/95/66 65/100/65 72/101/72
f 71/102/71 70/90/70 76/98/76
f 72/103/72 78/104/78 73/105/73
f 75/106/75 81/107/81 76/108/76
f 73/105/73 79/109/79 74/110/74
f 72/103/72 65/111/65 77/112/77
f 71/113/71 76/108/76 81/107/81
f 74/110/74 80/114/80 75/106/75
f 80/114/80 86/58/86 81/107/81
f 78/104/78 84/61/84 79/109/79
f 77/112/77 65/115/65 82/62/82
f 71/116/71 81/107/81 86/58/86
f 79/109/79 85/56/85 80/114/80
f 77/112/77 83/59/83 78/104/78
f 85/56/85 48/66/48 49/57/49
f 83/59/83 46/67/46 47/60/47
f 84/61/84 47/60/47 48/66/48
f 82/62/82 45/64/45 46/67/46
f 47/60/47 52/74/52 53/72/53
f 45/64/45 50/69/50 51/73/51
f 48/66/48 53/72/53 54/71/54
f 46/67/46 51/73/51 52/74/52
f 53/72/53 52/74/52 57/77/57
f 50/69/50 55/81/55 56/79/56
f 53/72/53 58/78/58 59/76/59
f 52/74/52 51/73/51 56/79/56
f 57/77/57 62/86/62 63/84/63
f 55/81/55 60/88/60 61/85/61
f 58/78/58 63/84/63 64/83/64
f 56/79/56 61/85/61 62/86/62
f 62/86/62 68/93/68 69/91/69
f 60/88/60 66/95/66 67/92/67
f 63/84/63 69/91/69 70/90/70
f 61/85/61 67/92/67 68/93/68
f 68/93/68 74/99/74 75/96/75
f 66/95/66 72/101/72 73/97/73
f 69/91/69 75/96/75 76/98/76
f 67/92/67 73/97/73 74/99/74
f 72/103/72 77/112/77 78/104/78
f 75/106/75 80/114/80 81/107/81
f 73/105/73 78/104/78 79/109/79
f 74/110/74 79/109/79 80/114/80
f 80/114/80 85/56/85 86/58/86
f 78/104/78 83/59/83 84/61/84
f 79/109/79 84/61/84 85/56/85
f 77/112/77 82/62/82 83/59/83
