# Blender 4.2.14 LTS
# www.blender.org
mtllib firemolly.mtl
o Circle
v 0.000000 0.000000 0.000000
v 0.000000 0.000000 -1.000000
v -0.382683 0.000000 -0.923880
v -0.707107 0.000000 -0.707107
v -0.923880 0.000000 -0.382683
v -1.000000 0.000000 0.000000
v -0.923880 0.000000 0.382683
v -0.707107 0.000000 0.707107
v -0.382683 0.000000 0.923880
v 0.000000 0.000000 1.000000
v 0.382683 0.000000 0.923880
v 0.707107 0.000000 0.707107
v 0.923880 0.000000 0.382683
v 1.000000 0.000000 0.000000
v 0.923880 0.000000 -0.382683
v 0.707107 0.000000 -0.707107
v 0.382683 0.000000 -0.923880
v 0.000000 0.401750 -1.000000
v -0.382683 0.401750 -0.923880
v -0.707107 0.401750 -0.707107
v -0.923880 0.401750 -0.382683
v -1.000000 0.401750 0.000000
v -0.923880 0.401750 0.382683
v -0.707107 0.401750 0.707107
v -0.382683 0.401750 0.923880
v 0.000000 0.401750 1.000000
v 0.382683 0.401750 0.923880
v 0.707107 0.401750 0.707107
v 0.923880 0.401750 0.382683
v 1.000000 0.401750 0.000000
v 0.923880 0.401750 -0.382683
v 0.707107 0.401750 -0.707107
v 0.382683 0.401750 -0.923880
vn -0.0000 1.0000 -0.0000
vn -0.5556 -0.0000 -0.8315
vn -0.8315 -0.0000 0.5556
vn 0.8315 -0.0000 0.5556
vn 0.5556 -0.0000 -0.8315
vn -0.8315 -0.0000 -0.5556
vn -0.5556 -0.0000 0.8315
vn 0.9808 -0.0000 0.1951
vn 0.1951 -0.0000 0.9808
vn 0.1951 -0.0000 -0.9808
vn -0.9808 -0.0000 -0.1951
vn -0.1951 -0.0000 0.9808
vn 0.9808 -0.0000 -0.1951
vn -0.1951 -0.0000 -0.9808
vn -0.9808 -0.0000 0.1951
vn 0.5556 -0.0000 0.8315
vn 0.8315 -0.0000 -0.5556
vt 0.500000 0.500000
vt 0.500000 1.000000
vt 0.308658 0.961940
vt 0.146447 0.853553
vt 0.038060 0.691342
vt 0.000000 0.500000
vt 0.038060 0.308658
vt 0.146447 0.146447
vt 0.308658 0.038060
vt 0.500000 0.000000
vt 0.691342 0.038060
vt 0.853553 0.146447
vt 0.961940 0.308658
vt 1.000000 0.500000
vt 0.961940 0.691342
vt 0.853553 0.853553
vt 0.691342 0.961940
s 0
usemtl Material.001
f 1/1/1 2/2/1 3/3/1
f 1/1/1 3/3/1 4/4/1
f 1/1/1 4/4/1 5/5/1
f 1/1/1 5/5/1 6/6/1
f 1/1/1 6/6/1 7/7/1
f 1/1/1 7/7/1 8/8/1
f 1/1/1 8/8/1 9/9/1
f 1/1/1 9/9/1 10/10/1
f 1/1/1 10/10/1 11/11/1
f 1/1/1 11/11/1 12/12/1
f 1/1/1 12/12/1 13/13/1
f 1/1/1 13/13/1 14/14/1
f 1/1/1 14/14/1 15/15/1
f 1/1/1 15/15/1 16/16/1
f 1/1/1 16/16/1 17/17/1
f 1/1/1 17/17/1 2/2/1
f 12/12/2 11/11/2 27/11/2 28/12/2
f 16/16/3 15/15/3 31/15/3 32/16/3
f 5/5/4 4/4/4 20/4/4 21/5/4
f 9/9/5 8/8/5 24/8/5 25/9/5
f 13/13/6 12/12/6 28/12/6 29/13/6
f 17/17/7 16/16/7 32/16/7 33/17/7
f 6/6/8 5/5/8 21/5/8 22/6/8
f 3/3/9 2/2/9 18/2/9 19/3/9
f 10/10/10 9/9/10 25/9/10 26/10/10
f 14/14/11 13/13/11 29/13/11 30/14/11
f 2/2/12 17/17/12 33/17/12 18/2/12
f 7/7/13 6/6/13 22/6/13 23/7/13
f 11/11/14 10/10/14 26/10/14 27/11/14
f 15/15/15 14/14/15 30/14/15 31/15/15
f 4/4/16 3/3/16 19/3/16 20/4/16
f 8/8/17 7/7/17 23/7/17 24/8/17
