# Blender 4.2.14 LTS
# www.blender.org
mtllib player_hand.mtl
o Cube.001
v -0.013800 -0.087199 0.212266
v 0.101537 -0.021772 0.203257
v 0.039981 0.091293 0.236297
v -0.075357 0.025866 0.245307
v 0.011762 0.219846 -0.576628
v 0.045683 0.232829 -0.550618
v 0.023047 0.268374 -0.539252
v -0.010874 0.255287 -0.565261
v -0.185440 0.176747 -0.620525
v -0.146469 0.198792 -0.624197
v -0.165433 0.234046 -0.605504
v -0.204404 0.212097 -0.601832
v -0.325876 0.093316 -0.486368
v -0.304411 0.110952 -0.517597
v -0.313842 0.146918 -0.501317
v -0.335308 0.129450 -0.470088
v -0.118937 0.022254 -0.336483
v 0.008804 0.078113 -0.338151
v -0.075028 0.173753 -0.301671
v -0.176620 0.109015 -0.267018
v -0.053972 0.108842 -0.493123
v 0.026636 0.143421 -0.431911
v -0.038690 0.211459 -0.406081
v -0.106542 0.203680 -0.477737
v -0.013358 0.174989 -0.545548
v 0.041827 0.194775 -0.502560
v 0.004409 0.250721 -0.483351
v -0.050431 0.230520 -0.525676
v -0.168179 0.077495 -0.486120
v -0.189480 0.171009 -0.440034
v -0.174695 0.136673 -0.570832
v -0.112370 0.168230 -0.577150
v -0.143885 0.223603 -0.547261
v -0.205028 0.192418 -0.540443
v -0.218618 0.057344 -0.398937
v -0.231402 0.130784 -0.352647
v -0.285201 0.072246 -0.451418
v -0.250182 0.098890 -0.504141
v -0.267351 0.156316 -0.476427
v -0.301650 0.129779 -0.423867
v -0.051079 -0.074273 0.040798
v 0.089189 0.005296 0.029841
v 0.014327 0.142801 0.070023
v -0.125942 0.063232 0.080980
v -0.082602 -0.024465 -0.148251
v 0.040238 0.045391 -0.158431
v -0.025354 0.165843 -0.123059
v -0.148194 0.096040 -0.112879
v -0.077870 0.216625 -0.441451
v 0.032530 0.224910 -0.567771
v 0.039273 0.254090 -0.545438
v 0.011540 0.180581 -0.408693
v 0.005356 0.121133 -0.464097
v 0.020568 0.116433 -0.390680
v -0.014381 0.078322 -0.414863
v -0.041106 0.028411 -0.327355
v -0.080944 0.049886 -0.418109
v -0.140453 0.043714 -0.420552
v -0.112503 0.083327 -0.496768
v 0.005480 0.267475 -0.554187
v -0.001263 0.238536 -0.576520
v -0.148968 0.197138 -0.460094
v -0.108561 0.195758 -0.410483
v 0.053322 -0.069886 0.216947
v -0.044339 0.189561 -0.358862
v -0.131998 0.175334 -0.368122
v -0.002664 0.136674 -0.306618
v -0.137048 0.149580 -0.266443
v -0.168398 0.059029 -0.285848
v -0.022311 0.069034 0.257543
v -0.055351 -0.040620 0.242779
v -0.179002 0.044914 -0.367113
v -0.196193 0.053791 -0.439802
v 0.086362 0.039768 0.231710
v -0.236739 0.086693 -0.367846
v -0.219945 0.155857 -0.389875
v -0.164908 0.154598 -0.326068
v -0.202672 0.117447 -0.312473
v -0.199874 0.193897 -0.614653
v -0.187916 0.228141 -0.605676
v -0.153291 0.220240 -0.619043
v -0.165248 0.185774 -0.628020
v -0.335812 0.109920 -0.477306
v -0.328633 0.141939 -0.486224
v -0.310201 0.130942 -0.514566
v -0.317380 0.098786 -0.505648
v -0.028985 0.149220 -0.519736
v 0.021218 0.174156 -0.527717
v 0.033613 0.169489 -0.469061
v 0.033433 0.226705 -0.484957
v -0.011052 0.232042 -0.446486
v -0.029994 0.250770 -0.500850
v -0.071963 0.213427 -0.495992
v -0.042209 0.199218 -0.543610
v -0.081500 0.169381 -0.506827
v 0.001461 0.199785 -0.567850
v 0.048080 0.217520 -0.532021
v 0.016897 0.265593 -0.516309
v -0.029679 0.247639 -0.552056
v -0.165191 0.112879 -0.532964
v -0.137735 0.141707 -0.579642
v -0.093571 0.142938 -0.540752
v -0.116552 0.202030 -0.563437
v -0.130889 0.207751 -0.509720
v -0.180254 0.218116 -0.538201
v -0.197009 0.178415 -0.498362
v -0.201437 0.158919 -0.554406
v -0.196380 0.128477 -0.486646
v -0.183119 0.158157 -0.603384
v -0.129725 0.187602 -0.608472
v -0.155856 0.235185 -0.582861
v -0.209103 0.205903 -0.577712
v -0.253609 0.064951 -0.427201
v -0.264580 0.074434 -0.482961
v -0.215018 0.089406 -0.490846
v -0.252257 0.132777 -0.500154
v -0.237087 0.155798 -0.457282
v -0.287641 0.153719 -0.444966
v -0.273238 0.127529 -0.394050
v -0.299959 0.095978 -0.427772
v -0.311823 0.082056 -0.472571
v -0.282191 0.105934 -0.515882
v -0.295427 0.154837 -0.493275
v -0.324955 0.131316 -0.449984
v -0.032399 -0.095869 0.143848
v 0.033092 -0.060270 0.027785
v 0.110309 -0.014916 0.132701
v 0.078058 0.088968 0.047878
v 0.034145 0.124981 0.173582
v -0.069844 0.128798 0.083036
v -0.108564 0.044027 0.184729
v -0.114811 -0.020440 0.062943
v -0.067549 -0.048261 -0.057958
v -0.008883 -0.012132 -0.159973
v 0.063669 0.026196 -0.068281
v 0.030474 0.118741 -0.142654
v -0.006367 0.154839 -0.030669
v -0.099073 0.153361 -0.111337
v -0.137585 0.080382 -0.020346
v -0.138430 0.022689 -0.128656
v -0.097841 -0.002256 -0.235008
v 0.019438 0.062640 -0.245207
v -0.044377 0.168359 -0.210886
v -0.159333 0.104275 -0.198205
v 0.041318 0.245250 -0.517804
v 0.030728 0.199773 -0.553167
v 0.009447 0.101910 -0.425532
v -0.045248 0.048911 -0.389817
v -0.110937 0.054983 -0.445797
v -0.061265 0.179203 -0.517797
v -0.049417 0.233497 -0.467183
v -0.114086 0.202255 -0.434698
v -0.329611 0.120842 -0.500329
v -0.093776 0.191194 -0.376995
v -0.178987 0.210287 -0.624892
v 0.023019 0.204544 -0.448572
v 0.010906 0.147680 -0.498350
v 0.022365 0.250737 -0.567357
v -0.170006 0.041690 -0.407549
v -0.200533 0.076470 -0.332933
v 0.001914 0.156115 -0.363779
v -0.172633 0.162048 -0.359800
v -0.170648 0.143842 -0.301984
v 0.020575 -0.005616 0.264449
v -0.012033 0.265593 -0.531551
v -0.022623 0.220769 -0.566914
v -0.123372 0.115838 -0.542436
v -0.100677 0.181652 -0.528263
v -0.169698 0.204203 -0.497993
v -0.193935 0.141158 -0.515743
v -0.151685 0.163947 -0.611079
v -0.132978 0.217213 -0.596997
v -0.187442 0.229371 -0.575891
v -0.206149 0.176918 -0.589973
v -0.230743 0.064903 -0.464276
v -0.220669 0.127949 -0.486516
v -0.259002 0.152789 -0.419443
v -0.270632 0.091263 -0.399491
v -0.294865 0.084801 -0.498635
v -0.283618 0.134924 -0.512838
v -0.312953 0.152151 -0.467633
v -0.324200 0.102395 -0.453431
v 0.053579 -0.082059 0.131831
v 0.099419 0.070078 0.152314
v -0.051356 0.110682 0.188155
v -0.097197 -0.041454 0.167672
v 0.011192 -0.035153 -0.070172
v 0.053254 0.104478 -0.051411
v -0.085108 0.141731 -0.018455
v -0.127170 0.002100 -0.037217
v -0.027463 0.009537 -0.245631
v 0.009687 0.128261 -0.229277
v -0.113624 0.154131 -0.197502
v -0.150275 0.040432 -0.213870
vn -0.1223 -0.8722 0.4736
vn 0.8628 -0.3134 0.3966
vn 0.3371 0.6524 0.6788
vn -0.6481 0.0935 0.7558
vn 0.1613 -0.2115 -0.9640
vn 0.9246 0.0800 -0.3724
vn 0.3754 0.9242 -0.0707
vn -0.3919 0.6254 -0.6747
vn -0.4147 -0.4448 -0.7938
vn 0.4875 0.0702 -0.8703
vn 0.0581 0.9214 -0.3842
vn -0.8548 0.3984 -0.3326
vn -0.7221 -0.6594 -0.2092
vn -0.2161 -0.2088 -0.9538
vn -0.4054 0.7346 -0.5441
vn -0.9437 0.2739 0.1856
vn -0.1957 -0.9719 -0.1308
vn 0.9242 -0.3668 -0.1064
vn 0.0540 0.9793 0.1949
vn -0.8967 0.2145 0.3873
vn 0.3651 -0.6482 -0.6682
vn 0.9875 -0.1509 0.0460
vn 0.1200 0.8825 0.4547
vn -0.1371 0.9727 -0.1874
vn -0.0874 -0.6619 -0.7445
vn 0.9682 -0.2468 0.0407
vn 0.2094 0.8490 0.4851
vn -0.8244 0.4578 -0.3329
vn -0.1515 -0.7696 -0.6202
vn -0.4383 0.8966 0.0630
vn -0.3988 -0.8141 -0.4222
vn 0.8407 -0.1436 -0.5221
vn 0.3248 0.9192 0.2226
vn -0.9301 0.2746 0.2440
vn -0.4124 -0.8935 0.1778
vn -0.6807 0.4074 0.6089
vn -0.3864 -0.9144 0.1205
vn 0.2860 -0.3134 -0.9055
vn 0.1457 0.9507 -0.2739
vn -0.6701 0.3395 0.6601
vn -0.2940 -0.9403 -0.1713
vn 0.9321 -0.2449 -0.2670
vn 0.2777 0.9570 0.0842
vn -0.9483 0.2615 0.1799
vn -0.2949 -0.9362 -0.1914
vn 0.9277 -0.2402 -0.2859
vn 0.2520 0.9675 0.0221
vn -0.9489 0.2790 0.1475
vn -0.2934 0.9376 0.1865
vn 0.6315 -0.1071 -0.7679
vn 0.7802 0.5804 -0.2333
vn 0.7670 0.4645 0.4426
vn 0.6431 -0.6466 -0.4102
vn 0.9806 -0.1892 0.0516
vn 0.5578 -0.7480 -0.3597
vn 0.4040 -0.8767 -0.2611
vn 0.2401 -0.8905 -0.3864
vn -0.0174 -0.9477 -0.3187
vn 0.1886 -0.8001 -0.5694
vn -0.0300 0.9096 -0.4143
vn -0.1544 0.2181 -0.9636
vn -0.3231 0.9174 0.2322
vn -0.2953 0.9042 0.3086
vn 0.4519 -0.7250 0.5198
vn 0.2194 0.8944 0.3898
vn -0.2746 0.9322 0.2360
vn 0.8236 0.5572 0.1061
vn -0.4744 0.8495 0.2310
vn -0.7891 -0.5799 0.2025
vn -0.1936 0.4606 0.8662
vn -0.4756 -0.4752 0.7402
vn -0.4171 -0.9019 0.1121
vn -0.1333 -0.9461 -0.2951
vn 0.7339 0.2108 0.6458
vn -0.6655 -0.4922 0.5611
vn -0.3456 0.8991 0.2688
vn -0.3682 0.8734 0.3186
vn -0.7944 0.2233 0.5648
vn -0.7548 -0.0531 -0.6538
vn -0.4732 0.7849 -0.4000
vn 0.3474 0.5856 -0.7324
vn 0.0485 -0.2454 -0.9682
vn -0.9678 -0.2514 0.0097
vn -0.7704 0.6080 -0.1921
vn -0.3353 0.3192 -0.8864
vn -0.5274 -0.5299 -0.6641
vn -0.0317 -0.6330 -0.7735
vn 0.5840 -0.6832 -0.4384
vn 0.9719 -0.2306 0.0477
vn 0.8069 0.3927 0.4413
vn 0.1998 0.8332 0.5155
vn -0.4498 0.8765 0.1714
vn -0.6843 0.5993 -0.4154
vn -0.6780 -0.1992 -0.7076
vn 0.2324 0.3468 -0.9087
vn -0.0066 -0.5381 -0.8428
vn 0.9845 -0.1552 -0.0815
vn 0.2655 0.9064 0.3286
vn -0.7229 0.5218 -0.4529
vn -0.4192 -0.7719 -0.4779
vn 0.3001 -0.7175 -0.6286
vn 0.7655 -0.1893 -0.6149
vn 0.8338 0.5373 -0.1268
vn 0.3078 0.9437 0.1213
vn -0.3934 0.8440 0.3646
vn -0.9072 0.3540 0.2272
vn -0.9010 -0.4284 -0.0679
vn -0.6573 0.0906 -0.7482
vn -0.4013 -0.7318 -0.5509
vn 0.7629 -0.0786 -0.6417
vn 0.2374 0.9710 0.0266
vn -0.9446 0.3228 0.0592
vn -0.3635 -0.9168 0.1651
vn -0.0330 -0.8871 -0.4603
vn 0.1348 -0.4030 -0.9052
vn 0.3810 0.4880 -0.7853
vn 0.0143 0.9568 -0.2903
vn -0.2774 0.9156 0.2911
vn -0.6605 0.3336 0.6727
vn -0.6755 -0.4633 0.5736
vn -0.5103 -0.8599 0.0120
vn 0.1506 -0.2818 -0.9476
vn -0.0384 0.9225 -0.3841
vn -0.7778 0.3340 0.5323
vn -0.2537 -0.9669 0.0280
vn 0.4548 -0.8418 -0.2908
vn 0.9578 -0.2796 -0.0667
vn 0.8591 0.4999 -0.1101
vn 0.3112 0.9080 0.2804
vn -0.4706 0.8580 0.2060
vn -0.9003 0.2208 0.3750
vn -0.8749 -0.4837 0.0253
vn -0.2983 -0.9341 -0.1963
vn 0.4483 -0.8385 -0.3098
vn 0.9259 -0.2397 -0.2918
vn 0.8436 0.5176 -0.1427
vn 0.2722 0.9605 0.0585
vn -0.4740 0.8689 0.1424
vn -0.9515 0.2661 0.1541
vn -0.8759 -0.4823 0.0098
vn -0.2855 -0.9423 -0.1748
vn 0.9378 -0.2561 -0.2345
vn 0.2037 0.9790 -0.0035
vn -0.9432 0.2754 0.1859
vn 0.8405 0.4571 0.2909
vn 0.6245 -0.5685 -0.5355
vn 0.7329 -0.6090 -0.3033
vn 0.3874 -0.8593 -0.3340
vn 0.1562 -0.8888 -0.4309
vn -0.5812 -0.1311 -0.8031
vn -0.3711 0.9112 0.1789
vn -0.3075 0.9265 0.2168
vn -0.8319 0.0358 -0.5537
vn -0.2176 0.9342 0.2828
vn -0.2717 0.3360 -0.9018
vn 0.7808 0.4055 0.4753
vn 0.5989 -0.6713 -0.4366
vn 0.3976 0.5032 -0.7673
vn -0.1911 -0.9643 -0.1831
vn -0.7127 -0.5542 0.4300
vn 0.7876 0.4976 0.3635
vn -0.3119 0.9137 0.2605
vn -0.5091 0.7613 0.4015
vn 0.1800 -0.1843 0.9662
vn -0.3807 0.9241 0.0322
vn -0.5721 -0.0960 -0.8146
vn 0.2382 -0.7324 -0.6379
vn 0.7990 0.5440 -0.2562
vn -0.3545 0.8792 0.3183
vn -0.9285 -0.3549 -0.1093
vn 0.2771 -0.6306 -0.7250
vn 0.7487 0.5871 -0.3078
vn -0.4561 0.8715 0.1799
vn -0.9053 -0.3562 -0.2314
vn -0.0758 -0.9195 -0.3857
vn 0.2183 0.4754 -0.8523
vn -0.3141 0.9046 0.2882
vn -0.6411 -0.4826 0.5967
vn -0.1373 -0.8235 -0.5504
vn 0.2072 0.4628 -0.8619
vn -0.4332 0.8831 0.1805
vn -0.7862 -0.4120 0.4605
vn 0.4857 -0.8691 -0.0935
vn 0.8853 0.4572 0.0850
vn -0.4291 0.8111 0.3975
vn -0.8287 -0.5151 0.2189
vn 0.4495 -0.8359 -0.3148
vn 0.8532 0.5039 -0.1344
vn -0.4746 0.8615 0.1806
vn -0.8782 -0.4783 0.0006
vn 0.4356 -0.8556 -0.2797
vn 0.8221 0.5560 -0.1224
vn -0.4812 0.8675 0.1263
vn -0.8568 -0.5133 0.0483
s 1
usemtl Material.001
f 6//6 51//51 145//145 97//97
f 51//51 7//7 98//98 145//145
f 145//145 98//98 27//27 90//90
f 97//97 145//145 90//90 26//26
f 5//5 50//50 146//146 96//96
f 50//50 6//6 97//97 146//146
f 146//146 97//97 26//26 88//88
f 96//96 146//146 88//88 25//25
f 22//22 54//54 147//147 53//53
f 18//18 55//55 147//147 54//54
f 21//21 53//53 147//147 55//55
f 18//18 56//56 148//148 55//55
f 17//17 57//57 148//148 56//56
f 21//21 55//55 148//148 57//57
f 17//17 58//58 149//149 57//57
f 29//29 59//59 149//149 58//58
f 21//21 57//57 149//149 59//59
f 28//28 94//94 150//150 93//93
f 94//94 25//25 87//87 150//150
f 150//150 87//87 21//21 95//95
f 93//93 150//150 95//95 24//24
f 27//27 92//92 151//151 91//91
f 92//92 28//28 93//93 151//151
f 151//151 93//93 24//24 49//49
f 91//91 151//151 49//49 23//23
f 30//30 63//63 152//152 62//62
f 23//23 49//49 152//152 63//63
f 24//24 62//62 152//152 49//49
f 16//16 84//84 153//153 83//83
f 84//84 15//15 85//85 153//153
f 153//153 85//85 14//14 86//86
f 83//83 153//153 86//86 13//13
f 30//30 66//66 154//154 63//63
f 19//19 65//65 154//154 66//66
f 23//23 63//63 154//154 65//65
f 12//12 80//80 155//155 79//79
f 80//80 11//11 81//81 155//155
f 155//155 81//81 10//10 82//82
f 79//79 155//155 82//82 9//9
f 26//26 90//90 156//156 89//89
f 90//90 27//27 91//91 156//156
f 156//156 91//91 23//23 52//52
f 89//89 156//156 52//52 22//22
f 25//25 88//88 157//157 87//87
f 88//88 26//26 89//89 157//157
f 157//157 89//89 22//22 53//53
f 87//87 157//157 53//53 21//21
f 8//8 60//60 158//158 61//61
f 60//60 7//7 51//51 158//158
f 158//158 51//51 6//6 50//50
f 61//61 158//158 50//50 5//5
f 35//35 73//73 159//159 72//72
f 29//29 58//58 159//159 73//73
f 17//17 72//72 159//159 58//58
f 36//36 75//75 160//160 78//78
f 75//75 35//35 72//72 160//160
f 160//160 72//72 17//17 69//69
f 78//78 160//160 69//69 20//20
f 19//19 67//67 161//161 65//65
f 67//67 18//18 54//54 161//161
f 161//161 54//54 22//22 52//52
f 65//65 161//161 52//52 23//23
f 36//36 77//77 162//162 76//76
f 19//19 66//66 162//162 77//77
f 30//30 76//76 162//162 66//66
f 36//36 78//78 163//163 77//77
f 20//20 68//68 163//163 78//78
f 19//19 77//77 163//163 68//68
f 1//1 64//64 164//164 71//71
f 64//64 2//2 74//74 164//164
f 164//164 74//74 3//3 70//70
f 71//71 164//164 70//70 4//4
f 7//7 60//60 165//165 98//98
f 60//60 8//8 99//99 165//165
f 165//165 99//99 28//28 92//92
f 98//98 165//165 92//92 27//27
f 8//8 61//61 166//166 99//99
f 61//61 5//5 96//96 166//166
f 166//166 96//96 25//25 94//94
f 99//99 166//166 94//94 28//28
f 31//31 101//101 167//167 100//100
f 101//101 32//32 102//102 167//167
f 167//167 102//102 21//21 59//59
f 100//100 167//167 59//59 29//29
f 32//32 103//103 168//168 102//102
f 103//103 33//33 104//104 168//168
f 168//168 104//104 24//24 95//95
f 102//102 168//168 95//95 21//21
f 33//33 105//105 169//169 104//104
f 105//105 34//34 106//106 169//169
f 169//169 106//106 30//30 62//62
f 104//104 169//169 62//62 24//24
f 34//34 107//107 170//170 106//106
f 107//107 31//31 100//100 170//170
f 170//170 100//100 29//29 108//108
f 106//106 170//170 108//108 30//30
f 9//9 82//82 171//171 109//109
f 82//82 10//10 110//110 171//171
f 171//171 110//110 32//32 101//101
f 109//109 171//171 101//101 31//31
f 10//10 81//81 172//172 110//110
f 81//81 11//11 111//111 172//172
f 172//172 111//111 33//33 103//103
f 110//110 172//172 103//103 32//32
f 11//11 80//80 173//173 111//111
f 80//80 12//12 112//112 173//173
f 173//173 112//112 34//34 105//105
f 111//111 173//173 105//105 33//33
f 12//12 79//79 174//174 112//112
f 79//79 9//9 109//109 174//174
f 174//174 109//109 31//31 107//107
f 112//112 174//174 107//107 34//34
f 37//37 114//114 175//175 113//113
f 114//114 38//38 115//115 175//175
f 175//175 115//115 29//29 73//73
f 113//113 175//175 73//73 35//35
f 38//38 116//116 176//176 115//115
f 116//116 39//39 117//117 176//176
f 176//176 117//117 30//30 108//108
f 115//115 176//176 108//108 29//29
f 39//39 118//118 177//177 117//117
f 118//118 40//40 119//119 177//177
f 177//177 119//119 36//36 76//76
f 117//117 177//177 76//76 30//30
f 40//40 120//120 178//178 119//119
f 120//120 37//37 113//113 178//178
f 178//178 113//113 35//35 75//75
f 119//119 178//178 75//75 36//36
f 13//13 86//86 179//179 121//121
f 86//86 14//14 122//122 179//179
f 179//179 122//122 38//38 114//114
f 121//121 179//179 114//114 37//37
f 14//14 85//85 180//180 122//122
f 85//85 15//15 123//123 180//180
f 180//180 123//123 39//39 116//116
f 122//122 180//180 116//116 38//38
f 15//15 84//84 181//181 123//123
f 84//84 16//16 124//124 181//181
f 181//181 124//124 40//40 118//118
f 123//123 181//181 118//118 39//39
f 16//16 83//83 182//182 124//124
f 83//83 13//13 121//121 182//182
f 182//182 121//121 37//37 120//120
f 124//124 182//182 120//120 40//40
f 41//41 126//126 183//183 125//125
f 126//126 42//42 127//127 183//183
f 183//183 127//127 2//2 64//64
f 125//125 183//183 64//64 1//1
f 42//42 128//128 184//184 127//127
f 128//128 43//43 129//129 184//184
f 184//184 129//129 3//3 74//74
f 127//127 184//184 74//74 2//2
f 43//43 130//130 185//185 129//129
f 130//130 44//44 131//131 185//185
f 185//185 131//131 4//4 70//70
f 129//129 185//185 70//70 3//3
f 44//44 132//132 186//186 131//131
f 132//132 41//41 125//125 186//186
f 186//186 125//125 1//1 71//71
f 131//131 186//186 71//71 4//4
f 45//45 134//134 187//187 133//133
f 134//134 46//46 135//135 187//187
f 187//187 135//135 42//42 126//126
f 133//133 187//187 126//126 41//41
f 46//46 136//136 188//188 135//135
f 136//136 47//47 137//137 188//188
f 188//188 137//137 43//43 128//128
f 135//135 188//188 128//128 42//42
f 47//47 138//138 189//189 137//137
f 138//138 48//48 139//139 189//189
f 189//189 139//139 44//44 130//130
f 137//137 189//189 130//130 43//43
f 48//48 140//140 190//190 139//139
f 140//140 45//45 133//133 190//190
f 190//190 133//133 41//41 132//132
f 139//139 190//190 132//132 44//44
f 17//17 56//56 191//191 141//141
f 56//56 18//18 142//142 191//191
f 191//191 142//142 46//46 134//134
f 141//141 191//191 134//134 45//45
f 18//18 67//67 192//192 142//142
f 67//67 19//19 143//143 192//192
f 192//192 143//143 47//47 136//136
f 142//142 192//192 136//136 46//46
f 19//19 68//68 193//193 143//143
f 68//68 20//20 144//144 193//193
f 193//193 144//144 48//48 138//138
f 143//143 193//193 138//138 47//47
f 20//20 69//69 194//194 144//144
f 69//69 17//17 141//141 194//194
f 194//194 141//141 45//45 140//140
f 144//144 194//194 140//140 48//48
