# Blender 4.2.14 LTS
# www.blender.org
mtllib plasmaball.mtl
o Sphere
v 0.285554 0.927939 -0.259407
v 0.501078 0.200036 -0.863476
v 0.461940 -0.382683 -0.800103
v 0.510378 0.732678 -0.484200
v 0.865684 0.200036 -0.497254
v 0.800103 -0.382683 -0.461940
v 0.494082 -0.727777 -0.494082
v 0.668722 0.738401 0.203905
v 0.923879 0.382683 -0.000000
v 1.003368 -0.163000 0.000000
v 0.707107 -0.707107 0.000000
v 0.800103 0.382683 0.461940
v 0.862755 -0.220170 0.484846
v 0.385259 -0.937142 -0.026775
v 0.320256 0.937142 0.215817
v 0.497254 0.200036 0.865684
v 0.461940 -0.382683 0.800103
v 0.481416 -0.737438 0.496828
v 0.079072 -0.997975 0.214205
v 0.148224 0.727777 0.690764
v -0.002208 0.200036 0.998331
v 0.000000 -0.382683 0.923879
v -0.192866 -0.721091 0.694150
v -0.447719 0.568183 0.715552
v -0.487486 -0.177753 0.870976
v -0.056708 0.997900 0.211637
v -0.800103 0.382683 0.461940
v -0.850674 -0.199792 0.521210
v -0.320257 -0.937142 0.215817
v -0.378780 0.927101 0.101494
v -0.694737 0.720577 0.155310
v -0.923880 0.382683 -0.000000
v -0.997311 -0.199792 0.026044
v -0.690764 -0.727777 0.148224
v -0.715977 0.582058 -0.436118
v -0.876719 -0.199792 -0.476100
v -0.473748 -0.727777 -0.524107
v -0.155310 0.720577 -0.694737
v -0.461940 0.382683 -0.800103
v -0.521210 -0.199792 -0.850674
v -0.124245 -0.955553 -0.349111
v -0.169442 0.937142 -0.347031
v 0.000000 0.382683 -0.923880
v -0.026044 -0.199792 -0.997311
v 0.000000 -0.707107 -0.707107
vn 0.1827 -0.9215 0.3426
vn -0.2787 -0.9254 0.2568
vn 0.0884 -0.9687 -0.2319
vn -0.4799 -0.2032 0.8535
vn -0.0183 -0.3662 0.9304
vn 0.0227 0.2111 0.9772
vn -0.0827 0.9688 -0.2338
vn -0.3918 0.9186 0.0512
vn 0.1224 0.9375 0.3259
vn -0.4923 0.7121 0.5006
vn -0.8530 -0.2069 0.4791
vn -0.5054 -0.7141 0.4845
vn -0.7472 0.6644 -0.0151
vn -0.9816 0.1907 -0.0110
vn -0.8115 0.3573 0.4625
vn -0.3515 -0.9124 -0.2098
vn -0.7927 -0.3672 -0.4866
vn -0.6799 -0.7067 -0.1957
vn -0.9266 -0.3759 0.0100
vn 0.1116 -0.7051 0.7002
vn -0.4929 0.7127 -0.4991
vn -0.4397 0.3725 -0.8172
vn -0.8530 0.2143 -0.4760
vn -0.5007 -0.2048 -0.8411
vn 0.0162 -0.1863 -0.9824
vn -0.1600 -0.7064 -0.6895
vn 0.3587 0.9122 -0.1982
vn 0.2086 0.6993 -0.6837
vn 0.5029 0.1730 -0.8468
vn -0.0369 0.3699 -0.9283
vn 0.4410 -0.5450 -0.7131
vn 0.7014 0.6979 -0.1448
vn 0.9819 0.1888 0.0147
vn 0.8248 0.1945 -0.5310
vn 0.9469 -0.3212 0.0156
vn 0.6583 -0.7372 -0.1520
vn 0.8116 -0.3273 -0.4839
vn 0.7255 -0.5365 0.4311
vn 0.4126 -0.9051 -0.1024
vn 0.5173 0.6919 0.5036
vn 0.5163 0.1726 0.8388
vn 0.8683 0.1791 0.4627
vn 0.4880 -0.3255 0.8098
vn -0.0049 0.6735 0.7392
vn -0.4627 0.3540 0.8128
vt 0.822808 0.875000
vt 0.617222 0.875000
vt 0.708333 1.000000
vt 0.666667 0.562957
vt 0.750000 0.625000
vt 0.750000 0.437055
vt 0.625000 0.000000
vt 0.510526 0.125000
vt 0.804594 0.125000
vt 0.625000 0.250000
vt 0.583333 0.562957
vt 0.620786 0.750000
vt 0.500000 0.250000
vt 0.500000 0.448994
vt 0.583333 0.375000
vt 0.406141 0.875000
vt 0.541667 1.000000
vt 0.416667 0.625000
vt 0.452897 0.750000
vt 0.500000 0.625000
vt 0.784884 0.750000
vt 0.372519 0.250000
vt 0.333333 0.375000
vt 0.416667 0.430170
vt 0.333333 0.562957
vt 0.260476 0.071538
vt 0.250000 0.562957
vt 0.283560 0.750000
vt 0.095207 0.125000
vt 0.206823 0.250000
vt 0.166667 0.444025
vt 0.250000 0.375000
vt 0.166667 0.688710
vt 0.033560 0.250000
vt 0.000000 0.437055
vt 0.083333 0.437055
vt 0.000000 0.625000
vt 0.034884 0.750000
vt 0.083333 0.625000
vt 0.916667 0.693373
vt 1.000000 0.750000
vt 1.000000 0.625000
vt 1.000000 0.875000
vt 0.958333 1.000000
vt 0.958333 0.000000
vt 1.000000 0.125000
vt 0.866893 0.250000
vt 0.833333 0.437055
vt 0.916667 0.437055
vt 0.833333 0.625000
vt 0.750000 0.250000
vt 0.666667 0.375000
vt 0.171420 0.930371
vt 0.041667 0.875000
vt 1.000000 0.437055
vt 1.000000 0.250000
s 1
usemtl shell
f 42/1/1 1/2/2 26/3/3
f 2/4/4 43/5/5 44/6/6
f 19/7/7 14/8/8 41/9/9
f 14/8/8 7/10/10 41/9/9
f 5/11/11 4/12/12 2/4/4
f 14/8/8 11/13/13 7/10/10
f 10/14/14 5/11/11 6/15/15
f 1/2/2 15/16/16 26/17/3
f 12/18/17 8/19/18 9/20/19
f 38/21/20 43/5/5 2/4/4 4/12/12
f 18/22/21 17/23/22 13/24/23
f 16/25/24 12/18/17 13/24/23
f 19/26/7 18/22/21 14/8/8
f 21/27/25 20/28/26 16/25/24
f 29/29/27 23/30/28 19/26/7
f 25/31/29 21/27/25 22/32/30
f 24/33/31 20/28/26 21/27/25
f 34/34/32 33/35/33 28/36/34
f 32/37/35 31/38/36 27/39/37
f 35/40/38 31/41/36 32/42/35
f 30/43/39 42/1/1 26/44/3
f 19/45/7 41/9/9 29/46/27
f 37/47/40 40/48/41 36/49/42
f 43/5/5 38/21/20 39/50/43
f 41/9/9 7/10/10 45/51/44
f 3/52/45 2/4/4 44/6/6
f 3/52/45 44/6/6 45/51/44 7/10/10
f 42/1/1 38/21/20 4/12/12 1/2/2
f 2/4/4 3/52/45 6/15/15 5/11/11
f 7/10/10 6/15/15 3/52/45
f 1/2/2 4/12/12 8/19/18 15/16/16
f 10/14/14 9/20/19 5/11/11
f 4/12/12 5/11/11 9/20/19 8/19/18
f 6/15/15 7/10/10 11/13/13 10/14/14
f 13/24/23 10/14/14 11/13/13 18/22/21
f 14/8/8 18/22/21 11/13/13
f 12/18/17 9/20/19 10/14/14 13/24/23
f 8/19/18 12/18/17 16/25/24 20/28/26
f 17/23/22 18/22/21 23/30/28 22/32/30
f 8/19/18 20/28/26 15/16/16
f 17/23/22 16/25/24 13/24/23
f 16/25/24 17/23/22 22/32/30 21/27/25
f 20/28/26 26/53/3 15/16/16
f 19/26/7 23/30/28 18/22/21
f 28/36/34 25/31/29 23/30/28 34/34/32
f 20/28/26 24/33/31 26/53/3
f 23/30/28 25/31/29 22/32/30
f 25/31/29 24/33/31 21/27/25
f 29/29/27 34/34/32 23/30/28
f 27/39/37 31/38/36 24/33/31
f 24/33/31 25/31/29 28/36/34 27/39/37
f 30/54/39 26/53/3 24/33/31 31/38/36
f 27/39/37 28/36/34 33/35/33 32/37/35
f 36/49/42 33/55/33 34/56/32 37/47/40
f 32/42/35 33/55/33 36/49/42 35/40/38
f 30/43/39 31/41/36 35/40/38 42/1/1
f 34/56/32 29/46/27 41/9/9 37/47/40
f 35/40/38 36/49/42 40/48/41 39/50/43
f 39/50/43 38/21/20 35/40/38
f 44/6/6 40/48/41 37/47/40 45/51/44
f 35/40/38 38/21/20 42/1/1
f 39/50/43 40/48/41 44/6/6 43/5/5
f 41/9/9 45/51/44 37/47/40
o Sphere.001
v 0.164931 0.403998 -0.164931
v 0.285670 0.233248 -0.285670
v 0.329863 -0.000000 -0.329863
v 0.285670 -0.233248 -0.285670
v 0.164931 -0.403998 -0.164931
v 0.233248 0.403998 -0.000000
v 0.403998 0.233248 -0.000000
v 0.466497 0.000000 0.000000
v 0.403998 -0.233248 0.000000
v 0.233248 -0.403998 0.000000
v 0.164931 0.403998 0.164931
v 0.285670 0.233248 0.285670
v 0.329863 0.000000 0.329863
v 0.285670 -0.233248 0.285670
v 0.164931 -0.403998 0.164931
v 0.000000 0.403998 0.233248
v 0.000000 0.233248 0.403998
v 0.000000 0.000000 0.466497
v 0.000000 -0.233248 0.403998
v 0.000000 -0.403998 0.233248
v 0.000000 0.466497 -0.000000
v -0.164931 0.403998 0.164931
v -0.285670 0.233248 0.285670
v -0.329863 0.000000 0.329863
v -0.285670 -0.233248 0.285670
v -0.164931 -0.403998 0.164931
v 0.000000 -0.466497 0.000000
v -0.233248 0.403998 -0.000000
v -0.403998 0.233248 -0.000000
v -0.466497 0.000000 0.000000
v -0.403998 -0.233248 0.000000
v -0.233248 -0.403998 0.000000
v -0.164931 0.403998 -0.164931
v -0.285670 0.233248 -0.285670
v -0.329863 -0.000000 -0.329863
v -0.285670 -0.233248 -0.285670
v -0.164931 -0.403998 -0.164931
v 0.000000 0.403998 -0.233248
v 0.000000 0.233248 -0.403998
v 0.000000 -0.000000 -0.466497
v 0.000000 -0.233248 -0.403998
v 0.000000 -0.403998 -0.233248
vn -0.0000 -1.0000 -0.0000
vn -0.0000 -0.8383 -0.5452
vn 0.3855 -0.8383 -0.3855
vn -0.0000 -0.4744 -0.8803
vn -0.0000 -0.0000 -1.0000
vn 0.7071 -0.0000 -0.7071
vn 0.6225 -0.4744 -0.6225
vn -0.0000 0.4744 -0.8803
vn -0.0000 0.8383 -0.5452
vn 0.3855 0.8383 -0.3855
vn 0.6225 0.4744 -0.6225
vn -0.0000 1.0000 -0.0000
vn 0.5452 0.8383 -0.0000
vn 0.8803 0.4744 -0.0000
vn 0.8803 -0.4744 -0.0000
vn 0.5452 -0.8383 -0.0000
vn 1.0000 -0.0000 -0.0000
vn 0.6225 -0.4744 0.6225
vn 0.3855 -0.8383 0.3855
vn 0.6225 0.4744 0.6225
vn 0.7071 -0.0000 0.7071
vn 0.3855 0.8383 0.3855
vn -0.0000 -0.4744 0.8803
vn -0.0000 -0.8383 0.5452
vn -0.0000 0.4744 0.8803
vn -0.0000 -0.0000 1.0000
vn -0.0000 0.8383 0.5452
vn -0.6225 -0.4744 0.6225
vn -0.3855 -0.8383 0.3855
vn -0.6225 0.4744 0.6225
vn -0.7071 -0.0000 0.7071
vn -0.3855 0.8383 0.3855
vn -0.8803 -0.4744 -0.0000
vn -0.5452 -0.8383 -0.0000
vn -0.8803 0.4744 -0.0000
vn -1.0000 -0.0000 -0.0000
vn -0.5452 0.8383 -0.0000
vn -0.6225 0.4744 -0.6225
vn -0.7071 -0.0000 -0.7071
vn -0.3855 0.8383 -0.3855
vn -0.3855 -0.8383 -0.3855
vn -0.6225 -0.4744 -0.6225
vt 0.687500 0.000000
vt 0.750000 0.166667
vt 0.625000 0.166667
vt 0.750000 0.333333
vt 0.750000 0.500000
vt 0.625000 0.500000
vt 0.625000 0.333333
vt 0.750000 0.666667
vt 0.750000 0.833333
vt 0.625000 0.833333
vt 0.625000 0.666667
vt 0.687500 1.000000
vt 0.500000 0.833333
vt 0.500000 0.666667
vt 0.500000 0.333333
vt 0.500000 0.166667
vt 0.500000 0.500000
vt 0.562500 1.000000
vt 0.562500 0.000000
vt 0.375000 0.333333
vt 0.375000 0.166667
vt 0.375000 0.666667
vt 0.375000 0.500000
vt 0.437500 1.000000
vt 0.375000 0.833333
vt 0.437500 0.000000
vt 0.250000 0.333333
vt 0.250000 0.166667
vt 0.250000 0.666667
vt 0.250000 0.500000
vt 0.312500 1.000000
vt 0.250000 0.833333
vt 0.312500 0.000000
vt 0.125000 0.333333
vt 0.125000 0.166667
vt 0.125000 0.666667
vt 0.125000 0.500000
vt 0.187500 1.000000
vt 0.125000 0.833333
vt 0.187500 0.000000
vt 0.000000 0.333333
vt 0.000000 0.166667
vt 0.000000 0.666667
vt 0.000000 0.500000
vt 0.062500 1.000000
vt 0.000000 0.833333
vt 0.062500 0.000000
vt 1.000000 0.500000
vt 1.000000 0.666667
vt 0.875000 0.666667
vt 0.875000 0.500000
vt 1.000000 0.833333
vt 0.937500 1.000000
vt 0.875000 0.833333
vt 0.937500 0.000000
vt 1.000000 0.166667
vt 0.875000 0.166667
vt 1.000000 0.333333
vt 0.875000 0.333333
vt 0.812500 1.000000
vt 0.812500 0.000000
s 1
usemtl inner
f 72/57/46 87/58/47 50/59/48
f 86/60/49 85/61/50 48/62/51 49/63/52
f 84/64/53 83/65/54 46/66/55 47/67/56
f 87/58/47 86/60/49 49/63/52 50/59/48
f 85/61/50 84/64/53 47/67/56 48/62/51
f 83/65/54 66/68/57 46/66/55
f 47/67/56 46/66/55 51/69/58 52/70/59
f 50/59/48 49/63/52 54/71/60 55/72/61
f 48/62/51 47/67/56 52/70/59 53/73/62
f 46/66/55 66/74/57 51/69/58
f 72/75/46 50/59/48 55/72/61
f 49/63/52 48/62/51 53/73/62 54/71/60
f 55/72/61 54/71/60 59/76/63 60/77/64
f 53/73/62 52/70/59 57/78/65 58/79/66
f 51/69/58 66/80/57 56/81/67
f 72/82/46 55/72/61 60/77/64
f 54/71/60 53/73/62 58/79/66 59/76/63
f 52/70/59 51/69/58 56/81/67 57/78/65
f 60/77/64 59/76/63 64/83/68 65/84/69
f 58/79/66 57/78/65 62/85/70 63/86/71
f 56/81/67 66/87/57 61/88/72
f 72/89/46 60/77/64 65/84/69
f 59/76/63 58/79/66 63/86/71 64/83/68
f 57/78/65 56/81/67 61/88/72 62/85/70
f 65/84/69 64/83/68 70/90/73 71/91/74
f 63/86/71 62/85/70 68/92/75 69/93/76
f 61/88/72 66/94/57 67/95/77
f 72/96/46 65/84/69 71/91/74
f 64/83/68 63/86/71 69/93/76 70/90/73
f 62/85/70 61/88/72 67/95/77 68/92/75
f 71/91/74 70/90/73 76/97/78 77/98/79
f 69/93/76 68/92/75 74/99/80 75/100/81
f 67/95/77 66/101/57 73/102/82
f 72/103/46 71/91/74 77/98/79
f 70/90/73 69/93/76 75/100/81 76/97/78
f 68/92/75 67/95/77 73/102/82 74/99/80
f 75/104/81 74/105/80 79/106/83 80/107/84
f 73/108/82 66/109/57 78/110/85
f 72/111/46 77/112/79 82/113/86
f 76/114/78 75/104/81 80/107/84 81/115/87
f 74/105/80 73/108/82 78/110/85 79/106/83
f 77/112/79 76/114/78 81/115/87 82/113/86
f 78/110/85 66/116/57 83/65/54
f 72/117/46 82/113/86 87/58/47
f 81/115/87 80/107/84 85/61/50 86/60/49
f 79/106/83 78/110/85 83/65/54 84/64/53
f 82/113/86 81/115/87 86/60/49 87/58/47
f 80/107/84 79/106/83 84/64/53 85/61/50
o Sphere.002
v 0.356150 0.290795 -0.356150
v 0.407583 -0.173977 -0.397245
v 0.578267 0.140305 0.009737
v 0.503671 -0.290795 0.000000
v 0.269359 0.519811 0.111572
v 0.407583 0.173977 0.397245
v 0.356150 -0.290795 0.356150
v 0.180711 -0.576826 0.050977
v 0.007463 0.146787 0.584414
v 0.000000 -0.290795 0.503671
v 0.068600 0.576504 -0.165615
v -0.129576 0.519763 0.252030
v -0.356150 0.290795 0.356150
v -0.407583 -0.173977 0.397245
v -0.086588 -0.519763 0.269836
v -0.584414 0.146787 0.007463
v -0.503671 -0.290795 0.000000
v -0.269836 -0.519763 -0.086588
v -0.252030 0.519763 -0.129576
v -0.356150 0.290795 -0.356150
v -0.397245 -0.173977 -0.407583
v -0.007463 0.146787 -0.584414
v 0.000000 -0.290795 -0.503671
v 0.086588 -0.519763 -0.269836
vn -0.6925 0.2858 0.6624
vn 0.0106 -0.2634 0.9646
vn 0.0208 0.4883 0.8724
vn -0.6177 -0.4957 0.6105
vn -0.1564 -0.9300 0.3325
vn -0.9712 -0.2384 0.0022
vn -0.6709 -0.2741 -0.6890
vn -0.4921 -0.8384 -0.2344
vn 0.2123 -0.8630 -0.4584
vn 0.6875 0.2895 -0.6660
vn -0.0262 -0.2479 -0.9684
vn -0.0386 0.4667 -0.8836
vn 0.6364 -0.4792 -0.6045
vn 0.9673 -0.2533 -0.0153
vn 0.4641 -0.8546 0.2330
vn -0.3390 0.9367 -0.0880
vn 0.4775 0.8650 0.1542
vn 0.1840 0.8593 -0.4773
vn 0.6660 0.2895 0.6875
vn 0.8724 0.4883 -0.0208
vn 0.6014 -0.4822 0.6370
vn -0.1508 0.8554 0.4955
vn -0.8779 0.4788 -0.0028
vn -0.6266 0.4544 -0.6331
vt 0.625000 0.405176
vt 0.750000 0.578090
vt 0.750000 0.333333
vt 0.625000 0.666667
vt 0.640175 0.896433
vt 0.500000 0.575504
vt 0.375000 0.594824
vt 0.437500 0.833333
vt 0.174434 0.833333
vt 0.312500 1.000000
vt 0.125000 0.405176
vt 0.250000 0.578090
vt 0.250000 0.333333
vt 0.125000 0.666667
vt 0.000000 0.578090
vt 0.000000 0.833333
vt 0.062500 1.000000
vt 0.062500 0.000000
vt 0.000000 0.166667
vt 0.200566 0.166667
vt 0.875000 0.405176
vt 1.000000 0.578090
vt 1.000000 0.333333
vt 0.875000 0.666667
vt 0.924434 0.833333
vt 0.812500 0.000000
vt 0.700566 0.166667
vt 0.950566 0.166667
vt 0.491359 0.105927
vt 0.500000 0.333333
vt 0.375000 0.333333
vt 0.000000 0.333333
s 1
usemtl inner_shell
f 89/118/88 109/119/89 110/120/90
f 88/121/91 98/122/92 109/119/89
f 90/123/93 88/121/91 89/118/88
f 93/124/94 92/125/95 90/123/93
f 92/125/95 99/126/96 98/127/92
f 92/125/95 98/122/92 88/121/91 90/123/93
f 101/128/97 96/129/98 97/130/99
f 100/131/100 99/126/96 96/129/98
f 103/132/101 100/131/100 101/128/97
f 99/126/96 106/133/102 98/134/92
f 95/135/103 105/136/104 102/137/105
f 108/138/106 103/139/101 104/140/107
f 107/141/108 106/142/102 103/139/101
f 95/143/103 111/144/109 105/145/104
f 109/119/89 107/141/108 108/138/106
f 111/144/109 89/118/88 110/120/90
f 109/119/89 89/118/88 88/121/91
f 89/118/88 111/144/109 95/146/103 91/147/110
f 90/123/93 91/147/110 94/148/111 93/124/94
f 91/147/110 90/123/93 89/118/88
f 95/146/103 94/148/111 91/147/110
f 94/148/111 95/146/103 102/137/105 97/130/99
f 96/129/98 93/124/94 94/148/111 97/130/99
f 92/125/95 93/124/94 96/129/98 99/126/96
f 101/128/97 102/137/105 105/136/104 104/149/107
f 102/137/105 101/128/97 97/130/99
f 96/129/98 101/128/97 100/131/100
f 99/126/96 100/131/100 103/132/101 106/133/102
f 101/128/97 104/149/107 103/132/101
f 106/142/102 107/141/108 109/119/89 98/122/92
f 103/139/101 108/138/106 107/141/108
f 105/145/104 108/138/106 104/140/107
f 108/138/106 110/120/90 109/119/89
f 108/138/106 105/145/104 111/144/109 110/120/90
o Sphere.004_deci
v 0.516192 -0.560273 -0.884059
v 1.010112 -0.000000 -0.583188
v 0.865711 -0.607458 -0.503432
v 1.142973 0.140414 0.099598
v 0.824753 -0.824753 0.000000
v 0.399127 -1.052323 0.145886
v 0.360389 0.395169 1.008251
v 0.223176 -1.077591 0.386553
v 0.145882 -0.912767 0.711247
v -0.533543 0.688981 -0.761664
v 0.491049 0.735901 -0.785738
v -0.545719 0.376738 0.945213
v -0.555854 0.274841 0.962767
v -0.969181 -0.299783 0.564265
v -1.139228 -0.136487 0.000000
v -0.687243 -0.389303 -0.871749
v -0.833494 -0.832731 -0.048070
v -0.738896 -0.782172 -0.426602
v -0.499116 -0.565121 -0.864495
v -0.097742 -0.406085 -1.154398
v -0.978073 -0.446353 -0.371408
v -0.799918 -0.446353 0.672099
v -0.821722 -0.489061 -0.589480
v -0.642415 -0.068494 0.886478
v -0.336664 0.446353 0.987382
v -1.064118 0.107904 0.453511
v -0.738888 -0.304196 0.771755
v -0.738395 -0.609848 0.511105
v -1.100866 -0.359840 0.043081
v -0.707743 0.192087 0.833363
v -0.723831 -0.283660 -0.792393
v -0.812889 -0.044075 -0.768435
v -0.913547 -0.298316 -0.580317
v -0.558170 -0.759408 -0.628107
v 0.932532 0.430208 0.543226
v 0.986723 -0.521987 0.148991
v 0.696299 -0.041104 -0.831591
v 0.363070 -0.446353 -0.980307
v 0.244006 -0.000000 -1.100995
v 0.315609 -0.000000 -1.081809
v 0.926861 0.537180 0.429582
v -0.063143 0.890681 0.747216
v 0.476088 0.634050 0.824609
v 0.182327 0.635737 0.904553
v -0.208550 0.694650 0.872278
v 1.035955 0.225237 0.319535
v 0.786024 -0.289740 -0.728548
v 0.576010 -0.185980 -0.980907
v 1.079511 0.117347 -0.266798
v 0.688801 0.234626 0.840747
v 1.009178 -0.120820 -0.496981
v 0.301073 -0.110838 -1.063657
v 0.157589 -0.170528 -1.090231
v 0.843744 -0.080943 0.727776
v 0.978738 -0.584098 -0.227790
v 0.347168 -0.520981 -0.934703
v 0.182978 0.201564 -1.077254
v 1.055212 -0.245855 0.232361
v 1.025947 -0.249884 0.495441
v 0.630626 -0.631914 -0.672020
v 0.706473 0.118773 -0.854554
v 0.696507 0.320447 -0.809721
v 0.620225 0.043141 -0.961353
v -0.870205 0.643947 -0.360298
v -0.523824 0.969200 -0.304856
v -0.049226 0.916876 -0.713859
v -0.774263 0.549456 -0.557612
v -0.497683 0.589230 -0.842334
v -0.101600 0.641804 -0.943879
v 0.634966 0.862971 -0.388244
v -0.735113 0.851045 0.370819
v -0.767356 0.850831 0.205454
v -0.809066 0.833623 -0.075747
v 0.805643 0.767184 -0.312292
v -0.820787 0.819872 0.099528
v -0.937389 0.606665 0.027827
v -0.618945 0.878332 -0.366357
v -0.591195 0.950983 -0.024732
v 0.698410 0.892724 0.031377
v 0.594383 -0.960716 0.191076
v -0.050680 -1.081540 0.428773
v -0.269352 -0.716501 0.834268
v -0.393582 -0.812937 0.694175
v -0.051661 0.000000 1.152534
v 0.075844 -1.077591 0.426031
v 0.131740 -1.114778 0.224102
v -0.164010 -1.009629 0.504119
v -0.159614 -0.306433 1.144482
v -0.286306 -0.156840 1.058464
v -0.508580 -0.677632 0.692798
v -0.301206 -0.522870 0.961596
v -0.478299 -0.849212 0.609247
v -0.448712 -0.953731 0.414236
vn 0.5541 0.7972 -0.2397
vn 0.2661 0.8300 -0.4902
vn 0.5063 0.7900 -0.3456
vn 0.7702 0.1890 0.6092
vn 0.4015 0.4147 0.8166
vn 0.7233 0.1847 0.6654
vn -0.0502 -0.8782 0.4757
vn 0.0646 -0.9210 0.3841
vn -0.0086 -0.7940 0.6079
vn -0.3495 -0.5263 0.7751
vn -0.2975 -0.5445 0.7842
vn -0.5319 -0.4448 0.7206
vn -0.8317 -0.2876 0.4749
vn -0.8425 -0.0583 0.5356
vn -0.9190 -0.3941 0.0097
vn -0.9487 -0.2088 -0.2375
vn -0.8463 -0.4352 -0.3072
vn -0.7057 0.0010 0.7085
vn -0.7448 -0.2894 -0.6013
vn -0.7349 -0.4521 -0.5055
vn -0.6137 0.0377 0.7886
vn -0.2542 0.1887 0.9486
vn -0.4038 0.1323 0.9052
vn -0.3953 -0.4559 -0.7974
vn -0.5074 -0.5115 -0.6934
vn -0.5420 -0.5271 -0.6545
vn 0.3955 0.4170 0.8183
vn 0.2705 -0.0257 -0.9624
vn 0.2542 0.1887 -0.9486
vn 0.2718 -0.0549 -0.9608
vn 0.4293 -0.7598 -0.4884
vn 0.5008 -0.3359 -0.7977
vn 0.8347 -0.2736 -0.4780
vn -0.6653 0.6921 -0.2800
vn -0.8258 0.5548 -0.1016
vn -0.3972 0.6818 -0.6143
vn -0.1556 0.6132 -0.7744
vn -0.0938 0.7357 -0.6708
vn 0.5311 0.8357 -0.1396
vn 0.0347 -0.9811 0.1903
vn 0.4556 -0.2370 -0.8580
vn 0.6891 -0.2457 -0.6817
vn 0.9589 -0.1846 -0.2155
vn 0.9672 -0.1928 -0.1656
vn 0.9454 -0.0119 0.3257
vn 0.9915 -0.0705 0.1090
vn 0.9221 0.1287 0.3648
vn 0.3608 -0.8277 0.4298
vn 0.4619 -0.8842 0.0693
vn 0.1404 0.5315 0.8353
vn -0.1648 -0.7756 0.6093
vn -0.1801 -0.6482 0.7399
vn -0.2635 -0.4965 0.8271
vn -0.6554 0.6577 -0.3712
vn -0.7131 -0.2494 -0.6552
vn -0.7131 -0.2493 -0.6552
vn -0.5741 0.7091 -0.4093
vn -0.7646 -0.5634 0.3131
vn -0.7224 -0.4446 0.5296
vn -0.6546 -0.2249 0.7217
vn -0.7030 -0.0103 0.7111
vn -0.8440 -0.5354 -0.0326
vn -0.7601 -0.5236 -0.3849
vn -0.6077 -0.5542 -0.5688
vn 0.2745 -0.2194 -0.9362
vn 0.1253 -0.5366 -0.8345
vn 0.2390 -0.3055 -0.9217
vn 0.9741 -0.2215 0.0464
vn 0.6906 -0.0700 -0.7199
vn 0.6905 -0.0700 -0.7199
vn -0.8876 0.4602 0.0207
vn -0.8876 0.4602 0.0206
vn -0.3311 0.5798 -0.7444
vn -0.3311 0.5798 -0.7445
vn -0.5788 -0.0214 0.8152
vn -0.5013 -0.1705 0.8483
vn 0.4669 -0.8296 0.3061
vn 0.4417 -0.8914 -0.1017
vn 0.7233 0.1846 0.6654
vn 0.6925 -0.1279 -0.7100
vn 0.7748 -0.2077 -0.5971
vn 0.1404 0.5315 0.8354
vn 0.2745 -0.2195 -0.9362
vt 0.683108 0.727592
vt 0.785597 0.712600
vt 0.711616 0.772428
vt 0.415990 0.620462
vt 0.304567 0.609345
vt 0.359538 0.565707
vt 0.232022 0.122575
vt 0.278320 0.125000
vt 0.283323 0.219478
vt 0.166534 0.246075
vt 0.147906 0.293768
vt 0.145925 0.240098
vt 0.083333 0.416835
vt 0.064466 0.528075
vt 0.005838 0.400113
vt 1.000000 0.375000
vt 1.000000 0.461777
vt 0.942556 0.375000
vt 0.149865 0.479121
vt 0.909276 0.415566
vt 0.899282 0.359662
vt 0.166667 0.576969
vt 0.197929 0.625000
vt 0.166667 0.605505
vt 0.761162 0.388552
vt 0.833333 0.335766
vt 0.855847 0.390486
vt 0.333333 0.687004
vt 0.715133 0.500000
vt 0.722918 0.556448
vt 0.704902 0.500000
vt 0.629964 0.313702
vt 0.666667 0.340762
vt 0.583333 0.326587
vt 0.062497 0.689297
vt 0.110250 0.749447
vt 0.000000 0.702438
vt 0.892104 0.686445
vt 0.885412 0.784222
vt 0.618025 0.783604
vt 0.315931 0.072792
vt 0.665608 0.449182
vt 0.619081 0.418859
vt 0.572449 0.466165
vt 0.538704 0.532616
vt 0.535984 0.336229
vt 0.428073 0.431278
vt 0.486293 0.537232
vt 0.452513 0.563077
vt 0.333333 0.125000
vt 0.450391 0.188454
vt 0.281938 0.688056
vt 0.199796 0.158600
vt 0.199370 0.286935
vt 0.200808 0.352518
vt 0.039915 0.776489
vt 0.867948 0.420562
vt 0.879361 0.487657
vt 0.973367 0.700246
vt 1.000000 0.826415
vt 0.097918 0.312000
vt 0.111497 0.375000
vt 0.128395 0.414811
vt 0.137667 0.553794
vt 0.991427 0.250767
vt 0.916667 0.264066
vt 0.865674 0.271586
vt 0.706157 0.468960
vt 0.693828 0.350347
vt 0.693845 0.375000
vt 0.465355 0.431149
vt 0.658476 0.512082
vt 0.636732 0.589740
vt 0.639710 0.533262
vt 0.143739 0.730433
vt 0.129518 0.677957
vt 0.166667 0.760915
vt 0.959848 0.669599
vt 1.000000 0.684149
vt 0.207965 0.456077
vt 0.229118 0.419772
vt 0.242618 0.500000
vt 0.444767 0.125000
vt 0.500000 0.250000
vt 0.386221 0.477128
vt 0.639139 0.485017
vt 0.583333 0.500000
vt 0.430843 0.651308
vt 0.235625 0.773507
vt 0.212167 0.703521
vt 0.118848 0.815539
vt 0.041187 0.816670
vt 0.000000 0.255256
vt 0.726781 0.452244
vt 0.475345 0.349659
vt 0.198955 0.752268
s 1
usemtl outer
f 185/150/112 122/151/113 181/152/114
f 146/153/115 118/154/116 161/155/117
f 192/156/118 196/157/119 120/158/120
f 194/159/121 201/160/122 203/161/123
f 125/162/124 137/163/125 140/164/126
f 140/165/126 126/166/127 132/167/128
f 135/168/129 137/163/125 125/162/124
f 132/167/128 144/169/130 134/170/131
f 124/171/132 136/172/133 123/173/134
f 131/174/135 130/175/136 127/176/137
f 146/153/115 154/177/138 118/154/116
f 150/178/139 168/179/140 151/180/141
f 171/181/142 112/182/143 114/183/144
f 175/184/145 184/185/146 121/186/147
f 180/187/148 177/188/149 122/151/113
f 181/152/114 190/189/150 185/150/112
f 196/157/119 192/156/118 197/190/151
f 112/182/143 159/191/152 158/192/153
f 162/193/154 160/194/154 166/195/155
f 170/196/156 115/197/157 157/198/158
f 119/199/159 191/200/160 120/158/120
f 196/157/119 119/199/159 120/158/120
f 118/154/116 154/177/138 155/201/161
f 120/158/120 198/202/162 192/156/118
f 193/203/163 120/158/120 202/204/164
f 121/186/147 184/185/146 188/205/165
f 142/206/166 144/169/130 143/207/167
f 121/208/147 176/209/168 177/188/149
f 140/164/126 139/210/169 125/162/124
f 122/151/113 177/188/149 181/152/114
f 133/211/170 138/212/171 125/162/124
f 139/210/169 133/211/170 125/162/124
f 141/213/172 137/163/125 135/168/129
f 128/214/173 132/167/128 129/215/174
f 145/216/175 134/170/131 130/175/136
f 150/178/139 151/180/141 163/217/176
f 167/218/177 149/219/178 112/182/143
f 115/197/157 170/196/156 169/220/179
f 174/221/180 173/222/181 172/223/181
f 186/224/182 187/225/183 183/226/182
f 179/227/184 178/228/185 121/208/147
f 200/229/186 199/230/187 195/231/186
f 117/232/188 116/233/189 191/200/160
f 161/155/117 165/234/190 146/153/115
f 165/234/190 170/196/156 146/153/115
f 148/235/191 113/236/192 158/192/153
f 113/236/192 114/183/144 158/192/153
f 114/183/144 112/182/143 158/192/153
f 115/197/157 166/195/155 160/194/154
f 166/195/155 114/183/144 162/193/154
f 114/183/144 113/236/192 162/193/154
f 115/197/157 152/237/158 157/198/158
f 157/198/158 146/153/115 170/196/156
f 119/199/159 117/232/188 191/200/160
f 154/177/138 153/238/161 155/201/161
f 155/201/161 156/239/193 118/154/116
f 120/158/120 193/203/163 198/202/162
f 120/158/120 199/230/187 202/204/164
f 202/204/164 201/160/122 193/203/163
f 201/160/122 194/159/121 193/203/163
f 189/240/165 176/241/168 188/205/165
f 176/241/168 121/186/147 188/205/165
f 142/206/166 134/170/131 144/169/130
f 140/164/126 128/242/173 139/210/169
f 135/168/129 124/171/132 141/213/172
f 124/171/132 123/173/134 141/213/172
f 140/165/126 132/167/128 128/214/173
f 132/167/128 134/170/131 129/215/174
f 129/215/174 134/170/131 145/216/175
f 134/170/131 127/176/137 130/175/136
f 163/217/176 159/191/152 149/219/178
f 159/191/152 112/182/143 149/219/178
f 149/219/178 164/243/194 163/217/176
f 164/243/194 150/178/139 163/217/176
f 170/196/156 147/244/179 169/220/179
f 169/220/179 166/195/155 115/197/157
f 113/236/192 148/235/191 172/223/181
f 148/235/191 174/221/180 172/223/181
f 186/224/182 184/185/146 187/225/183
f 184/185/146 175/184/145 187/225/183
f 187/225/183 182/245/182 183/226/182
f 177/188/149 180/187/148 121/208/147
f 180/187/148 179/227/184 121/208/147
f 200/229/186 202/204/164 199/230/187
l 203 204
o Sphere.004_deci.001
v 0.516192 -0.560273 -0.884059
v 1.010112 -0.000000 -0.583188
v 0.865711 -0.607458 -0.503432
v 1.142973 0.140414 0.099598
v 0.824753 -0.824753 0.000000
v 0.399127 -1.052323 0.145886
v 0.360389 0.395169 1.008251
v 0.223176 -1.077591 0.386553
v 0.145882 -0.912767 0.711247
v -0.533543 0.688981 -0.761664
v 0.491049 0.735901 -0.785738
v -0.545719 0.376738 0.945213
v -0.555854 0.274841 0.962767
v -0.969181 -0.299783 0.564265
v -1.139228 -0.136487 0.000000
v -0.687243 -0.389303 -0.871749
v -0.833494 -0.832731 -0.048070
v -0.738896 -0.782172 -0.426602
v -0.499116 -0.565121 -0.864495
v -0.097742 -0.406085 -1.154398
v -0.978073 -0.446353 -0.371408
v -0.799918 -0.446353 0.672099
v -0.821722 -0.489061 -0.589480
v -0.642415 -0.068494 0.886478
v -0.336664 0.446353 0.987382
v -1.064118 0.107904 0.453511
v -0.738888 -0.304196 0.771755
v -0.738395 -0.609848 0.511105
v -1.100866 -0.359840 0.043081
v -0.707743 0.192087 0.833363
v -0.723831 -0.283660 -0.792393
v -0.812889 -0.044075 -0.768435
v -0.913547 -0.298316 -0.580317
v -0.558170 -0.759408 -0.628107
v 0.932532 0.430208 0.543226
v 0.986723 -0.521987 0.148991
v 0.696299 -0.041104 -0.831591
v 0.363070 -0.446353 -0.980307
v 0.244006 -0.000000 -1.100995
v 0.315609 -0.000000 -1.081809
v 0.926861 0.537180 0.429582
v -0.063143 0.890681 0.747216
v 0.476088 0.634050 0.824609
v 0.182327 0.635737 0.904553
v -0.208550 0.694650 0.872278
v 1.035955 0.225237 0.319535
v 0.786024 -0.289740 -0.728548
v 0.576010 -0.185980 -0.980907
v 1.079511 0.117347 -0.266798
v 0.688801 0.234626 0.840747
v 1.009178 -0.120820 -0.496981
v 0.301073 -0.110838 -1.063657
v 0.157589 -0.170528 -1.090231
v 0.843744 -0.080943 0.727776
v 0.978738 -0.584098 -0.227790
v 0.347168 -0.520981 -0.934703
v 0.182978 0.201564 -1.077254
v 1.055212 -0.245855 0.232361
v 1.025947 -0.249884 0.495441
v 0.630626 -0.631914 -0.672020
v 0.706473 0.118773 -0.854554
v 0.696507 0.320447 -0.809721
v 0.620225 0.043141 -0.961353
v -0.870205 0.643947 -0.360298
v -0.523824 0.969200 -0.304856
v -0.049226 0.916876 -0.713859
v -0.774263 0.549456 -0.557612
v -0.497683 0.589230 -0.842334
v -0.101600 0.641804 -0.943879
v 0.634966 0.862971 -0.388244
v -0.735113 0.851045 0.370819
v -0.767356 0.850831 0.205454
v -0.809066 0.833623 -0.075747
v 0.805643 0.767184 -0.312292
v -0.820787 0.819872 0.099528
v -0.937389 0.606665 0.027827
v -0.618945 0.878332 -0.366357
v -0.591195 0.950983 -0.024732
v 0.698410 0.892724 0.031377
v 0.594383 -0.960716 0.191076
v -0.050680 -1.081540 0.428773
v -0.269352 -0.716501 0.834268
v -0.393582 -0.812937 0.694175
v -0.051661 0.000000 1.152534
v 0.075844 -1.077591 0.426031
v 0.131740 -1.114778 0.224102
v -0.164010 -1.009629 0.504119
v -0.159614 -0.306433 1.144482
v -0.286306 -0.156840 1.058464
v -0.508580 -0.677632 0.692798
v -0.301206 -0.522870 0.961596
v -0.478299 -0.849212 0.609247
v -0.448712 -0.953731 0.414236
vn -0.5541 -0.7972 0.2397
vn -0.5063 -0.7900 0.3456
vn -0.2661 -0.8300 0.4902
vn -0.7233 -0.1847 -0.6654
vn -0.4015 -0.4147 -0.8166
vn -0.7702 -0.1890 -0.6092
vn -0.9454 0.0119 -0.3257
vn 0.0502 0.8782 -0.4757
vn 0.0086 0.7940 -0.6079
vn -0.0646 0.9210 -0.3841
vn 0.3495 0.5263 -0.7751
vn 0.5319 0.4448 -0.7206
vn 0.2975 0.5445 -0.7842
vn 0.8317 0.2876 -0.4749
vn 0.9190 0.3941 -0.0097
vn 0.8425 0.0583 -0.5356
vn 0.8463 0.4352 0.3072
vn 0.9487 0.2088 0.2375
vn 0.7057 -0.0010 -0.7085
vn 0.7349 0.4521 0.5055
vn 0.7447 0.2894 0.6013
vn 0.6137 -0.0377 -0.7886
vn 0.4038 -0.1323 -0.9052
vn 0.2542 -0.1887 -0.9486
vn 0.3953 0.4559 0.7974
vn 0.5420 0.5271 0.6545
vn 0.5074 0.5115 0.6934
vn -0.3955 -0.4170 -0.8184
vn -0.2705 0.0257 0.9624
vn -0.2718 0.0549 0.9608
vn -0.2542 -0.1887 0.9486
vn -0.4293 0.7598 0.4884
vn -0.8347 0.2736 0.4780
vn -0.5008 0.3358 0.7978
vn 0.6653 -0.6921 0.2800
vn 0.3972 -0.6819 0.6143
vn 0.8258 -0.5548 0.1016
vn 0.1556 -0.6132 0.7744
vn 0.0938 -0.7357 0.6708
vn -0.5311 -0.8357 0.1396
vn -0.0347 0.9811 -0.1903
vn -0.7748 0.2077 0.5971
vn -0.6925 0.1279 0.7100
vn -0.6891 0.2457 0.6817
vn -0.4556 0.2370 0.8580
vn -0.9672 0.1928 0.1656
vn -0.9915 0.0705 -0.1090
vn -0.9589 0.1846 0.2155
vn -0.9221 -0.1287 -0.3648
vn -0.3608 0.8277 -0.4297
vn -0.4619 0.8842 -0.0693
vn -0.4669 0.8296 -0.3061
vn -0.1404 -0.5315 -0.8353
vn 0.1648 0.7756 -0.6093
vn 0.1801 0.6482 -0.7399
vn 0.5013 0.1705 -0.8483
vn 0.2635 0.4965 -0.8271
vn 0.5742 -0.7091 0.4093
vn 0.6554 -0.6577 0.3712
vn 0.7131 0.2493 0.6552
vn 0.7646 0.5633 -0.3132
vn 0.8440 0.5354 0.0326
vn 0.7224 0.4446 -0.5296
vn 0.6546 0.2249 -0.7217
vn 0.7031 0.0103 -0.7111
vn 0.7601 0.5236 0.3849
vn 0.6077 0.5542 0.5688
vn -0.2745 0.2195 0.9362
vn -0.2390 0.3055 0.9217
vn -0.1253 0.5366 0.8345
vn -0.9741 0.2215 -0.0464
vn -0.6905 0.0700 0.7199
vn 0.8876 -0.4602 -0.0206
vn 0.3311 -0.5798 0.7444
vn 0.5788 0.0214 -0.8152
vn -0.4417 0.8914 0.1017
vt 0.683108 0.727592
vt 0.711616 0.772428
vt 0.785597 0.712600
vt 0.386221 0.477128
vt 0.359538 0.565707
vt 0.304567 0.609345
vt 0.415990 0.620462
vt 0.428073 0.431278
vt 0.232022 0.122575
vt 0.283323 0.219478
vt 0.278320 0.125000
vt 0.166534 0.246075
vt 0.145925 0.240098
vt 0.147906 0.293768
vt 0.083333 0.416835
vt 0.005838 0.400113
vt 0.064466 0.528075
vt 1.000000 0.375000
vt 0.942556 0.375000
vt 1.000000 0.461777
vt 0.149865 0.479121
vt 0.899282 0.359662
vt 0.909276 0.415566
vt 0.166667 0.576969
vt 0.166667 0.605505
vt 0.197929 0.625000
vt 0.761162 0.388552
vt 0.855847 0.390486
vt 0.833333 0.335766
vt 0.333333 0.687004
vt 0.715133 0.500000
vt 0.704902 0.500000
vt 0.722918 0.556448
vt 0.629964 0.313702
vt 0.583333 0.326587
vt 0.666667 0.340762
vt 0.062497 0.689297
vt 0.000000 0.702438
vt 0.110250 0.749447
vt 0.892104 0.686445
vt 0.885412 0.784222
vt 0.618025 0.783604
vt 0.315931 0.072792
vt 0.583333 0.500000
vt 0.639139 0.485017
vt 0.619081 0.418859
vt 0.665608 0.449182
vt 0.535984 0.336229
vt 0.486293 0.537232
vt 0.538704 0.532616
vt 0.572449 0.466165
vt 0.452513 0.563077
vt 0.430843 0.651308
vt 0.333333 0.125000
vt 0.450391 0.188454
vt 0.444767 0.125000
vt 0.212167 0.703521
vt 0.281938 0.688056
vt 0.235625 0.773507
vt 0.199796 0.158600
vt 0.199370 0.286935
vt 0.229118 0.419772
vt 0.200808 0.352518
vt 0.041187 0.816670
vt 0.118848 0.815539
vt 0.039915 0.776489
vt 0.867948 0.420562
vt 0.879361 0.487657
vt 0.973367 0.700246
vt 1.000000 0.826415
vt 0.097918 0.312000
vt 0.000000 0.255256
vt 0.111497 0.375000
vt 0.128395 0.414811
vt 0.137667 0.553794
vt 0.991427 0.250767
vt 0.916667 0.264066
vt 0.865674 0.271586
vt 0.706157 0.468960
vt 0.726781 0.452244
vt 0.693845 0.375000
vt 0.693828 0.350347
vt 0.465355 0.431149
vt 0.475345 0.349659
vt 0.639710 0.533262
vt 0.636732 0.589740
vt 0.658476 0.512082
vt 0.143739 0.730433
vt 0.166667 0.760915
vt 0.198955 0.752268
vt 0.129518 0.677957
vt 1.000000 0.684149
vt 0.959848 0.669599
vt 0.207965 0.456077
vt 0.242618 0.500000
vt 0.500000 0.250000
s 1
usemtl outer
f 278/246/195 274/247/196 215/248/197
f 258/249/198 254/250/198 211/251/199 239/252/200 263/253/201
f 285/254/202 213/255/203 289/256/204
f 287/257/205 296/258/206 294/259/207
f 218/260/208 233/261/209 230/262/210
f 233/263/209 225/264/211 219/265/212
f 228/266/213 218/260/208 230/262/210
f 225/264/211 227/267/214 237/268/215
f 217/269/216 216/270/217 229/271/218
f 224/272/219 220/273/220 223/274/221
f 239/252/200 211/251/199 247/275/222
f 243/276/223 244/277/224 261/278/225
f 264/279/226 207/280/227 205/281/228
f 268/282/229 214/283/230 277/284/231
f 273/285/232 215/248/197 270/286/233
f 274/247/196 278/246/195 283/287/234
f 289/256/204 290/288/235 285/254/202
f 206/289/236 241/290/237 251/291/238 252/292/239 205/281/228 207/280/227
f 259/293/240 208/294/241 253/295/242 255/296/242 206/289/236 207/280/227
f 263/253/201 239/252/200 250/297/243 245/298/243 208/294/241
f 212/299/244 213/255/203 284/300/245 210/301/246
f 289/256/204 213/255/203 212/299/244
f 211/251/199 249/302/247 248/303/247 246/304/247 247/275/222
f 213/255/203 285/254/202 291/305/248 286/306/249
f 292/307/250 213/255/203 286/306/249 287/257/205 294/259/207 295/308/251
f 269/309/252 282/310/253 281/311/253 277/284/231 214/283/230
f 235/312/254 236/313/254 237/268/215 227/267/214
f 214/314/230 270/286/233 269/315/252
f 233/261/209 218/260/208 232/316/255 221/317/256
f 215/248/197 274/247/196 270/286/233
f 226/318/257 218/260/208 231/319/258
f 232/316/255 218/260/208 226/318/257
f 228/266/213 230/262/210 234/320/259 216/270/217 217/269/216
f 225/264/211 233/263/209 221/321/256 222/322/260 227/267/214
f 227/267/214 222/322/260 238/323/261 223/274/221 220/273/220
f 256/324/262 244/277/224 243/276/223 257/325/262 242/326/263 205/281/228 252/292/239
f 260/327/264 205/281/228 242/326/263
f 208/294/241 259/293/240 262/328/265 240/329/265 263/253/201
f 241/290/237 206/289/236 265/330/266 266/331/266 267/332/266
f 279/333/267 276/334/267 275/335/267 280/336/267 268/282/229 277/284/231
f 273/285/232 270/286/233 214/314/230 271/337/268 272/338/268
f 293/339/269 288/340/269 292/307/250 295/308/251
f 210/301/246 284/300/245 209/341/270
l 296 297
